<?xml version="1.0" encoding="UTF-8" standalone="no"?>
<svg
   xmlns:dc="http://purl.org/dc/elements/1.1/"
   xmlns:cc="http://creativecommons.org/ns#"
   xmlns:rdf="http://www.w3.org/1999/02/22-rdf-syntax-ns#"
   xmlns:svg="http://www.w3.org/2000/svg"
   xmlns="http://www.w3.org/2000/svg"
   version="1.1"
   id="svg1555"
   width="10mm"
   height="10mm"
   viewBox="0 0 37.795275 37.795276">
  <metadata
     id="metadata1561">
    <rdf:RDF>
      <cc:Work
         rdf:about="">
        <dc:format>image/svg+xml</dc:format>
        <dc:type
           rdf:resource="http://purl.org/dc/dcmitype/StillImage" />
        <dc:title></dc:title>
      </cc:Work>
    </rdf:RDF>
  </metadata>
  <defs
     id="defs1559" />
  <g
     id="g1563"
     style="display:inline">
    <g
       id="g1749"
       transform="matrix(0.04065196,0,0,0.04065196,1.6008048,0.03858643)">
      <g
         id="g1739" />
      <g
         id="g1677"
         transform="translate(1.9927118,-3.000093)">
        <g
           id="g1769">
          <path
             id="path1606"
             style="display:inline;fill:#000000;stroke:#000000;stroke-width:4.6486413;stroke-miterlimit:4;stroke-dasharray:none"
             d="m 407.3904,799.72452 c 22.81632,-12.12881 10.103,-11.59223 -5.64821,-6.6367 -13.7655,5.005 -31.37863,11.50565 -40.18555,14.60352 -132.41419,46.57707 -170.6923,63.98296 -196.69141,89.4414 -20.9489,20.51324 -25.32863,22.85112 -47.20507,25.19727 -10.73608,1.15141 -21.950449,3.07891 -24.921879,4.2832 -13.73109,5.56507 -23.485075,1.78565 -33.322265,-12.91211 -4.155474,-6.20871 -4.425691,-9.01493 -1.699219,-17.64258 2.640277,-8.35489 2.402257,-11.89837 -1.28125,-19.08203 l -4.523438,-8.82031 1.478516,9.0957 c 1.637653,10.07062 -3.222136,23.51969 -8.058594,22.29883 -1.705614,-0.43055 -4.506549,-2.70424 -6.222656,-5.05273 -1.716109,-2.34846 -5.413857,-6.90804 -8.216797,-10.13282 -2.80294,-3.22478 -5.095703,-8.38887 -5.095703,-11.47461 0,-10.11259 14.450507,-40.92344 20.306641,-43.29687 9.52584,-3.86072 31.486678,-2.57602 44.605468,2.60937 9.502536,3.75601 17.173706,4.83493 34.101566,4.79493 27.89945,-0.0659 50.41761,-7.06898 205.22656,-65.27539 9.7689,-4.23261 1.25764,-6.26495 -6.19922,-3.39063 l -43.32227,16.28711 c -97.48034,36.64835 -125.67371,44.94336 -152.76171,44.94336 -14.78155,0 -24.9753,-1.36306 -35.257816,-4.71289 -11.35946,-3.70065 -17.929061,-4.44061 -30.613282,-3.44922 -24.357286,1.90376 -27.790611,4.53953 -35.367187,27.16211 -3.609012,10.776 -6.557934,21.98633 -6.552734,24.91211 0.01127,6.3015 11.66902,22.10396 25.246093,34.22266 5.340493,4.76685 9.708985,9.84374 9.708985,11.28125 0,1.4375 2.828535,5.33624 6.285156,8.66406 5.87821,5.65919 7.339422,5.96791 22.570313,4.76562 30.044942,-2.37166 51.610322,-5.21947 57.449222,-7.58593 6.70458,-2.71729 27.05796,-19.02948 34.55078,-27.68946 8.328,-9.62527 47.60036,-30.60612 82.83789,-44.25586 55.94365,-22.10121 100.71083,-35.05022 148.77907,-53.15236 z"
             transform="translate(-1.9927118,3.000093)" />
          <path
             id="path1732"
             style="display:inline;fill:#000000;stroke:#000000;stroke-width:4.6486413;stroke-miterlimit:4;stroke-dasharray:none"
             d="m 546.54883,766.55859 c -7.82883,-3.19224 -11.78469,1.35121 -6.33064,3.8764 16.43966,6.27447 33.90606,12.63661 47.89119,17.89898 95.51239,36.34997 126.39642,45.66164 151.39843,45.64844 14.64646,-0.007 22.53888,-1.30694 33.48828,-5.51367 17.75258,-6.82053 27.92893,-6.97399 37.16407,-0.56055 14.20046,9.86167 21.78475,43.56959 12.00586,53.36133 -5.76876,5.77636 -9.52124,2.61021 -14.57813,-12.30078 l -4.01562,-11.83984 1.38476,18.74609 c 1.28256,17.36964 0.79397,19.55405 -6.66797,29.77148 l -8.05468,11.02735 -17.47266,0.33594 c -9.61008,0.18521 -23.80774,-0.68099 -31.55078,-1.92579 -12.70957,-2.04323 -15.67284,-3.80326 -30.49024,-18.09375 -27.51628,-26.53779 -63.56469,-43.25687 -181.12304,-84.01171 -24.88353,-8.62657 -44.21139,-15.51182 -58.35547,-20.65625 l -0.16407,0.0254 c -26.9862,-10.25656 -30.18559,-1.90869 -18.23437,2.01174 41.47101,13.50153 160.90673,55.68511 180.0293,63.9707 29.02177,12.57481 50.07927,25.68424 65.85156,40.99609 15.85133,15.38858 29.42573,22.85938 41.53125,22.85938 4.87217,0 16.21015,1.15122 25.19531,2.55664 23.8929,3.73724 28.98013,2.01637 41.52149,-14.04492 5.95755,-7.62964 15.03622,-18.10936 20.17578,-23.28711 11.6123,-11.69855 12.27756,-23.47758 2.5664,-45.4375 -8.14859,-18.42645 -13.04134,-22.41415 -29.84375,-24.32227 -10.48562,-1.19078 -16.02512,-0.40364 -28.7832,4.09375 -24.21909,8.53758 -45.11598,7.77736 -80.63867,-2.9375 -22.99651,-6.93654 -103.94549,-36.61413 -143.90039,-52.24805 z"
             transform="translate(-1.9927118,3.000093)" />
          <path
             id="path1728"
             style="display:inline;fill:#000000;stroke:#000000;stroke-width:4.6486413;stroke-miterlimit:4;stroke-dasharray:none"
             d="m 589.57227,670.10938 c -9.50166,3.00455 -8.13133,6.52784 1.418,3.60738 52.90581,-19.37499 99.86371,-34.13276 151.19532,-55.03907 3.90126,-2.98906 3.51098,-3.05652 -3.65235,-0.62695 -11.2578,3.81831 -12.43986,1.55654 -4.3164,-8.26367 3.85742,-4.66311 12.70081,-16.78929 19.65234,-26.94727 10.2193,-14.93311 14.53163,-19.06758 22.52148,-21.5957 9.50574,-3.00777 10.26445,-2.8718 19.94727,3.56641 5.8669,3.90095 14.89099,7.27734 21.63281,8.09375 10.36101,1.25467 11.92221,2.29666 14.9668,9.99218 2.78858,7.04848 2.48997,11.45359 -1.65625,24.5293 -2.77956,8.76572 -5.52714,19.90606 -6.10742,24.75781 -0.84158,7.03646 -0.65367,7.48242 0.93164,2.20508 2.51907,-8.3856 8.25259,-15.83793 10.73633,-13.95703 1.04744,0.79323 3.89068,8.03585 6.31836,16.0957 l 4.41406,14.6543 -13.78516,15.55859 -13.78515,15.56055 -16.33985,-1.13672 c -17.1793,-1.19484 -113.25985,7.58979 -131.37109,12.01172 -4.16428,1.01673 -40.69158,14.44571 -84.13086,30.66992 l -0.0586,0.125 c -19.38257,6.63962 -16.0041,13.09626 -5.48633,9.54492 5.87777,-2.24751 11.65203,-4.46353 16.22832,-6.21656 l 75.07227,-28.24024 50.87891,-6.41992 c 34.2022,-4.3151 58.88315,-6.23806 75.30273,-5.86914 23.93448,0.53777 24.54949,0.42093 30.57812,-5.83203 3.38374,-3.50965 10.41173,-10.30327 15.61719,-15.0957 11.53745,-10.62204 11.64676,-14.97206 0.99024,-38.88086 -6.8759,-15.42665 -7.78484,-19.93752 -5.54688,-27.48047 3.31079,-11.15879 0.63679,-24.25584 -5.84961,-28.66211 -2.68625,-1.8248 -10.12453,-4.04161 -16.53125,-4.92578 -6.40672,-0.88417 -15.35335,-3.94547 -19.88086,-6.80274 -9.66765,-6.10119 -13.80269,-6.37821 -26.58398,-1.78515 -7.46229,2.68163 -13.07317,8.44485 -26.29492,27.01367 -29.9043,41.99801 -25.56352,39.40112 -122.35547,73.21094 -11.56646,4.16591 -23.1172,8.37806 -34.66976,12.57989 z"
             transform="translate(-1.9927118,3.000093)" />
          <path
             id="path1724"
             style="display:inline;fill:#000000;stroke:#000000;stroke-width:4.6486413;stroke-miterlimit:4;stroke-dasharray:none"
             d="m 75.267578,547.76758 c -4.722812,0.49393 -9.682973,2.20994 -15.15039,5.02344 -6.29967,3.24176 -14.844103,5.51367 -20.738282,5.51367 -5.540458,0 -13.098671,1.88881 -16.898437,4.22265 -6.350043,3.90024 -6.890891,5.88 -7.085938,25.91407 -0.165223,16.9708 -1.659065,24.56884 -6.8593748,34.92187 -11.7488289,23.39014 -11.3788742,27.25517 3.9023438,40.8125 7.347667,6.51877 13.359375,12.62903 13.359375,13.58008 0,0.95105 3.935445,3.2704 8.746094,5.1543 6.561097,2.56939 13.292122,3.07372 26.9375,2.01757 19.14486,-1.48181 98.113141,6.81804 130.023441,13.66602 31.73426,10.28982 65.43302,22.28929 91.21875,31.70508 9.73514,3.61076 10.33268,-3.4279 -4.75,-9.19727 C 242.27839,707.59038 207.46538,695.20004 198.34961,692.98633 170.76553,686.28769 80.336758,677.20335 57.388672,678.82617 L 38.394531,680.16992 25.169922,664.99805 C 9.5302159,647.05487 7.1993835,642.16914 10.945312,635.19336 c 1.540351,-2.86849 3.489903,-7.69618 4.332032,-10.72852 0.842128,-3.03234 3.381336,-7.4283 5.642578,-9.76953 3.999949,-4.14146 4.213928,-4.11073 7.912109,1.10352 2.090646,2.9477 4.750558,8.3358 5.910157,11.97461 2.10307,6.59941 2.108905,6.60194 2.40625,0.68359 0.163948,-3.26329 -2.978223,-12.81239 -6.982422,-21.21875 -7.939422,-16.66791 -8.923413,-24.86044 -4.210938,-35.09766 2.568445,-5.5796 4.985049,-6.86513 14.773438,-7.85937 6.436528,-0.65378 16.974157,-3.95523 23.416015,-7.33594 10.92918,-5.73567 12.224191,-5.92959 19.369141,-2.89258 4.58064,1.94703 12.090466,9.81544 18.691408,19.58204 6.06879,8.97926 16.37656,21.68494 22.90625,28.23437 6.52968,6.54943 11.05263,12.52842 10.05078,13.28711 -1.00185,0.75869 -6.68898,1.20914 -12.63867,1.00195 -9.64513,-0.33588 -8.91189,0.0867 6.76172,3.90039 9.66843,2.35251 28.38344,8.2768 41.58984,13.16407 13.2064,4.88728 24.57874,8.88476 25.27148,8.88476 0.776,0 32.16747,11.40458 81.12305,29.32031 7.42574,2.73508 5.71526,-2.19153 1.68359,-3.86328 -10.75038,-4.18666 -22.21415,-8.24549 -33.28911,-12.28906 -95.56119,-34.10545 -91.10133,-32.21124 -101.13672,-42.91992 -5.23849,-5.58995 -16.83971,-20.28638 -25.78125,-32.6582 -17.26746,-23.89184 -29.310076,-33.41148 -43.478512,-31.92969 z"
             transform="translate(-1.9927118,3.000093)" />
          <path
             id="path1673"
             style="fill:#000000;stroke:#000000;stroke-width:0.18897638;stroke-miterlimit:4;stroke-dasharray:none"
             d="m 19.304688,0.0625 c -0.398474,0 -0.795912,0.0188601 -1.111329,0.05664062 -0.271364,0.0325039 -0.714119,0.0773218 -0.982421,0.0996094 -0.493441,0.0409895 -0.593044,0.0682997 -1.634766,0.42578125 -0.428588,0.1470757 -0.860936,0.39151863 -1.738281,0.98437493 -0.619185,0.4184067 -0.879877,0.6570862 -1.15625,1.0664063 -0.130754,0.1936513 -0.374652,0.486724 -0.542969,0.6484375 -0.247323,0.2376186 -0.266729,0.2286785 -0.394531,0.2890625 -0.03359,0.01587 -0.123164,0.077635 -0.154297,0.125 -0.02081,0.031655 -0.03808,0.067108 -0.09766,0.1308594 -0.119251,0.1276033 -0.412061,0.682068 -0.697266,1.3183593 -0.131142,0.2925763 -0.210192,0.5457005 -0.271484,0.875 -0.08858,0.4759125 -0.318104,1.0607628 -0.44336,1.1308594 -0.05119,0.02865 -0.06245,0.1454791 -0.06836,0.6464844 C 10.007714,8.1950224 9.99304,8.4882093 9.978511,8.5117188 9.9536822,8.5519008 9.2726241,9.0796648 8.8046875,9.421875 8.3096698,9.7838905 8.0957119,10.128136 8.1367188,10.5 c 0.047195,0.42798 0.495456,0.560751 1.4199218,0.421875 l 0.4785154,-0.07031 0.138672,0.326172 c 0.196526,0.462306 0.269531,0.74729 0.269531,1.048828 v 0.261719 l -0.355468,0.02344 c -0.1956379,0.01275 -0.5587435,0.0685 -0.8046879,0.125 -0.2459443,0.0565 -0.6652908,0.13384 -0.9335937,0.171875 -0.268303,0.03803 -0.4982087,0.08409 -0.5097656,0.101562 -0.038418,0.05808 -0.8053643,0.192099 -0.9707032,0.169922 -0.1389045,-0.01863 -0.1751059,-0.0057 -0.2636718,0.08984 -0.1235397,0.133301 -0.2322224,0.409764 -0.3691407,0.945312 -0.2376871,0.929698 -0.3240909,1.821911 -0.2949219,3.013672 0.035899,1.466735 0.2355986,2.249142 0.9316407,3.640625 0.5540825,1.107686 1.2059734,1.803691 2.1132812,2.257813 0.2175067,0.108865 0.4304263,0.259711 0.6210938,0.439453 0.1908731,0.179935 0.4005951,0.328273 0.6132811,0.433594 0.309877,0.153449 0.347068,0.161908 0.869141,0.193359 l 0.544922,0.0332 0.220703,0.169922 c 0.121507,0.09374 0.413104,0.390511 0.648437,0.660156 0.492636,0.564465 0.607028,0.671431 0.886719,0.835938 l 0.203125,0.11914 0.195312,0.560547 c 0.230817,0.660301 0.405072,1.198818 0.496094,1.53125 0.04088,0.149319 0.11139,0.285218 0.185547,0.359375 0.08345,0.08345 0.119141,0.158134 0.119141,0.251953 0,0.181147 0.222129,0.921941 0.367187,1.222657 0.114576,0.237523 0.587127,0.904329 0.800781,1.128906 0.125854,0.132287 0.383845,0.153391 0.50586,0.04297 0.09868,-0.08931 0.09546,-0.342217 -0.0059,-0.636719 -0.135425,-0.393622 -0.251655,-1.00585 -0.27539,-1.453125 l -0.02148,-0.429688 0.125,-0.128906 c 0.06931,-0.0709 0.133884,-0.128906 0.142578,-0.128906 0.04746,0 0.380645,0.53816 0.582031,0.939453 0.216802,0.43201 0.23304,0.47964 0.222656,0.714844 -0.01648,0.373336 0.07965,0.660045 0.285156,0.845703 0.163174,0.147417 0.177376,0.151613 0.40625,0.130859 0.207511,-0.01882 0.238249,-0.01115 0.259766,0.05664 0.258081,0.08441 0.571316,0.01952 0.8125,-0.0039 0.223586,-0.0015 0.43377,-0.02031 0.466797,-0.04102 0.04025,-0.02524 0.08156,-0.01783 0.125,0.02148 0.03766,0.03408 0.179851,0.0659 0.339844,0.07617 0.151449,0.0097 0.286048,0.02824 0.298828,0.04102 0.05456,0.05457 0.511863,0.02248 0.582031,-0.04102 0.06586,-0.0596 0.08092,-0.0596 0.166016,0 0.248652,0.174163 0.630865,-0.05144 0.746093,-0.439453 0.06812,-0.22937 0.0796,-0.604297 0.02148,-0.712891 -0.03006,-0.05617 0.02063,-0.191024 0.226562,-0.595703 0.221886,-0.436025 0.435771,-0.788081 0.585938,-0.964843 0.0156,-0.01837 0.08051,0.01489 0.144531,0.07422 0.103481,0.0959 0.117889,0.141343 0.130859,0.400391 0.01679,0.335412 -0.109449,1.099736 -0.259765,1.570313 -0.175306,0.548805 -0.115866,0.773437 0.205078,0.773437 0.131881,0 0.191651,-0.0241 0.273437,-0.111328 0.226809,-0.241889 0.694352,-0.89777 0.804688,-1.128906 0.149605,-0.313397 0.365234,-1.045522 0.365234,-1.236329 0,-0.10273 0.02436,-0.162468 0.08008,-0.197265 0.112972,-0.07055 0.187286,-0.228168 0.28711,-0.619141 0.0477,-0.186818 0.177214,-0.586554 0.289062,-0.888672 0.111848,-0.302118 0.226918,-0.642771 0.25586,-0.755859 0.04645,-0.181486 0.07702,-0.21868 0.25,-0.320313 0.289782,-0.170257 0.407041,-0.279765 0.904297,-0.84375 0.248339,-0.281664 0.549502,-0.588737 0.669921,-0.68164 l 0.21875,-0.167969 0.544922,-0.0332 c 0.522187,-0.03146 0.559587,-0.03988 0.869141,-0.193359 0.201657,-0.09999 0.424827,-0.255914 0.59375,-0.414063 0.193931,-0.181563 0.35477,-0.289848 0.570312,-0.380859 0.676188,-0.285514 1.40038,-0.888165 1.822266,-1.519531 0.306892,-0.459275 0.864992,-1.618647 1.056641,-2.195313 0.08917,-0.268303 0.189688,-0.652288 0.224609,-0.853516 0.151247,-0.871548 0.175301,-2.076348 0.06055,-3.15039 -0.09526,-0.891553 -0.399747,-1.995451 -0.607422,-2.203125 -0.11327,-0.113271 -0.254508,-0.145342 -0.357422,-0.08008 -0.03063,0.01943 -0.180789,0.0036 -0.351562,-0.03711 -0.163591,-0.03898 -0.468215,-0.09323 -0.677735,-0.121094 -0.209519,-0.02787 -0.398796,-0.0661 -0.421875,-0.08398 -0.03693,-0.02861 -0.610046,-0.156505 -1.279297,-0.287109 -0.122972,-0.024 -0.369959,-0.05636 -0.548828,-0.07031 l -0.326172,-0.02539 0.01172,-0.263672 c 0.0061,-0.145331 0.04639,-0.383079 0.08984,-0.529297 0.08679,-0.29203 0.339656,-0.865422 0.369141,-0.835938 0.01021,0.01021 0.239374,0.0487 0.509765,0.08399 0.995352,0.129895 1.407676,-0.05204 1.34375,-0.591797 C 30.428845,9.9883687 30.259866,9.7549365 29.804688,9.421875 29.353836,9.0919803 28.652507,8.5452534 28.626953,8.5039062 28.612185,8.480011 28.599518,8.2303937 28.597656,7.9492188 L 28.59375,7.4394531 28.386719,6.9921875 C 28.120669,6.4189762 28.12904,6.4430261 28.066406,6.0332031 28.003023,5.6184706 27.884996,5.3084958 27.511719,4.5722656 27.215962,3.9889328 26.971902,3.6418671 26.855469,3.6386719 26.736048,3.6353937 26.178547,3.0679869 25.927734,2.6953125 25.652469,2.286305 25.393258,2.047743 24.773438,1.6289062 23.896092,1.0360499 23.463744,0.79160695 23.035156,0.64453125 21.993434,0.28704969 21.891878,0.25973953 21.398438,0.21875 21.130135,0.1964624 20.689333,0.15164455 20.417969,0.11914062 20.102552,0.0813601 19.703161,0.0625 19.304688,0.0625 Z m 0,0.24414062 c 0.299603,0 0.599066,0.0123507 0.763671,0.0390625 0.140615,0.0228184 0.570267,0.0657024 0.955079,0.0957031 0.685768,0.053463 0.715993,0.0602298 1.453124,0.30664063 0.846135,0.28284785 1.069362,0.39986995 2.048829,1.06835935 0.786891,0.5370563 0.857492,0.6012416 1.171875,1.0683594 0.159581,0.2371099 0.410942,0.5229022 0.710937,0.8105469 0.438008,0.4199763 0.742188,0.8248244 0.742188,0.9863281 0,0.035465 0.0252,0.084551 0.05664,0.109375 0.123406,0.097428 0.465527,0.9777896 0.552735,1.4238282 0.06282,0.3213179 0.143467,0.5661146 0.294922,0.8945312 0.196696,0.426522 0.208655,0.4735117 0.222656,0.8378906 L 28.292969,8.3320312 28.085938,8.109375 C 27.80719,7.8069183 26.982446,6.7071442 26.798828,6.3925781 26.773355,6.3489374 26.686259,6.2429409 26.603516,6.1582031 26.496947,6.0490677 26.420603,5.9106937 26.34375,5.6816406 l -0.109375,-0.3242187 0.123047,0.076172 c 0.127616,0.077825 0.345703,0.100911 0.345703,0.037109 0,-0.020288 -0.115273,-0.1531103 -0.255859,-0.2949219 C 26.279062,5.006112 26.173427,4.8597841 26.136719,4.7460936 26.061229,4.5123029 25.972656,4.5174871 25.972656,4.7558636 V 4.9375 L 25.716797,4.7324219 C 25.186835,4.3031551 24.52056,3.9125398 24.082031,3.7753906 23.94158,3.7314646 23.639185,3.7061962 23.105469,3.6914062 L 22.333984,3.6699219 21.988281,3.5214844 C 21.696873,3.396819 21.597405,3.3729796 21.357422,3.375 c -0.15651,0.00132 -0.411849,0.033594 -0.56836,0.070312 -1.073637,0.2518848 -0.964254,0.2380842 -1.183593,0.1542969 -0.109268,-0.04174 -0.306668,-0.1340561 -0.4375,-0.203125 -0.276984,-0.146225 -0.557799,-0.1631759 -1.103516,-0.068359 -0.178868,0.031078 -0.479874,0.069161 -0.669922,0.083984 -0.407265,0.031765 -1.179687,0.1838407 -1.179687,0.2324218 0,0.018626 -0.03536,0.033203 -0.08008,0.033203 -0.04517,0 -0.08203,0.028623 -0.08203,0.0625 0,0.086838 0.320087,0.078849 0.851563,-0.019531 0.478568,-0.088586 1.47115,-0.2052814 1.744141,-0.2050781 0.104814,7.48e-5 0.240126,0.035382 0.330078,0.085937 L 19.130859,3.6875 19.017578,3.9570312 c -0.06229,0.1485769 -0.125875,0.3795205 -0.140625,0.5136719 -0.02496,0.2270388 -0.01846,0.2574551 0.09766,0.4277344 0.113994,0.1671629 0.126279,0.2109077 0.126953,0.515625 4.07e-4,0.1834062 0.02006,0.3790343 0.04492,0.4335937 0.03631,0.079698 0.02796,0.1437782 -0.04102,0.328125 -0.124689,0.3332603 -0.114355,0.6894921 0.02734,1.0332032 0.102838,0.2494485 0.109855,0.3118542 0.105469,0.7792968 -0.0026,0.2794823 -0.03368,0.9977126 -0.07031,1.5976563 -0.06509,1.0660965 -0.06458,1.1034725 0.01563,1.6464845 0.113382,0.767617 0.12468,1.685755 0.02539,2.039062 -0.137195,0.488193 -0.138136,1.300782 -0.002,1.300782 0.155283,-0.07365 0.223095,-0.451129 0.171875,-0.63086 -0.03856,-0.106637 -0.0312,-0.198129 0.04102,-0.511718 0.121191,-0.526222 0.123318,-1.498578 0.0039,-2.238282 -0.08388,-0.51962 -0.08352,-0.525983 -0.0098,-1.7519529 0.04068,-0.6761791 0.07147,-1.4214849 0.06836,-1.65625 -0.005,-0.3794962 -0.02029,-0.4609582 -0.136719,-0.7480469 l -0.130859,-0.3242187 0.06836,-0.2246094 c 0.148233,-0.4938859 0.154776,-0.5649305 0.08594,-0.7753906 -0.03673,-0.1122775 -0.06445,-0.3349785 -0.06445,-0.5136719 0,-0.2723291 -0.01349,-0.3349412 -0.103516,-0.4648437 -0.123185,-0.1777556 -0.113998,-0.302567 0.05469,-0.6484375 L 19.365234,3.8613281 19.673828,3.875 c 0.192898,0.00888 0.398264,-0.00926 0.548828,-0.048828 0.319959,-0.084095 0.847515,-0.1908589 1.074219,-0.2167969 0.155418,-0.017782 0.233651,0.00506 0.525391,0.1464844 l 0.34375,0.1660156 0.591796,0.00195 c 0.740756,0.00101 1.066709,0.045839 1.449219,0.2050781 0.349884,0.1456568 1.178799,0.6819344 1.427735,0.9238282 0.142208,0.1381857 0.33789,0.4339312 0.33789,0.5117187 0,0.020805 -0.437835,-0.3013483 -0.691406,-0.5097656 -0.08193,-0.067342 -0.188987,-0.1152344 -0.255859,-0.1152344 -0.10136,0 -0.114815,0.013264 -0.103516,0.109375 0.0091,0.077249 0.09079,0.1723636 0.277344,0.3261719 0.145331,0.1198212 0.470437,0.4050095 0.722656,0.6328125 0.252219,0.227803 0.492635,0.4263992 0.533203,0.4414063 0.09926,0.03672 0.270432,0.2592383 0.570313,0.7402343 0.475743,0.7630727 0.912188,1.2588692 1.507812,1.7128907 0.167689,0.1278235 0.414677,0.3308111 0.548828,0.4511718 0.134152,0.1203611 0.371581,0.3055915 0.527344,0.4121094 0.511846,0.350022 0.660209,0.735723 0.322266,0.833984 -0.115456,0.03357 -0.919476,0.0047 -1.103516,-0.03906 -0.104684,-0.02492 -0.112323,-0.05077 -0.04102,-0.146485 0.04698,-0.06306 0.07815,-0.05951 0.425782,0.05274 0.421365,0.136056 0.539062,0.150876 0.539062,0.0625 0,-0.122756 -0.562316,-0.422997 -1.076172,-0.5742189 -0.483678,-0.14234 -0.90843,-0.1655446 -1.466797,-0.078125 -1.592277,0.2492909 -2.519076,0.9572529 -3.248046,2.4804689 -0.552477,1.154424 -0.750094,1.934343 -0.753907,2.966797 l -0.002,0.488281 c -3.9e-4,0.118459 -6.12e-4,0.142013 0.002,0.257812 l 0.0625,0.59375 c 0.116677,1.111048 0.307457,2.024386 0.632813,3.011719 0.200087,0.607188 0.734317,1.701428 1.001953,2.052735 0.573214,0.752417 1.555362,1.449216 2.328125,1.652343 0.28522,0.07497 0.951118,0.09759 1.259766,0.04297 0.161368,-0.02856 0.174883,-0.02546 0.121093,0.02734 -0.110842,0.108803 -0.642066,0.350205 -0.820312,0.373047 -0.112619,0.01443 -0.290916,-0.0083 -0.5,-0.0625 -0.40615,-0.105303 -0.72737,-0.317296 -1.199219,-0.792969 -0.447295,-0.45092 -0.574715,-0.465827 -0.330078,-0.04102 0.14762,0.256342 0.412189,0.55563 0.667969,0.757813 0.2174,0.171845 0.22089,0.167109 -0.191407,0.230469 -0.517032,0.07945 -1.082031,0.45872 -1.082031,0.726562 0,0.136474 0.06747,0.118257 0.400391,-0.107422 0.285588,-0.193593 0.668596,-0.36914 0.808594,-0.36914 0.04102,0 -0.06497,0.138381 -0.275391,0.357422 -0.188504,0.196222 -0.437793,0.459008 -0.552735,0.583984 -0.226385,0.24615 -0.492606,0.464424 -0.52539,0.43164 -0.01125,-0.01125 -0.03665,-0.119351 -0.05664,-0.242187 -0.01999,-0.122836 -0.08185,-0.376807 -0.138672,-0.564453 -0.05682,-0.187646 -0.115886,-0.421497 -0.130859,-0.517578 -0.02036,-0.130643 -0.04466,-0.171452 -0.09375,-0.16211 -0.113745,0.02165 -0.105897,0.46106 0.01563,0.931641 0.180704,0.699756 0.161402,0.8626 -0.234375,1.966797 -0.104182,0.290661 -0.228384,0.66323 -0.275391,0.828125 -0.121243,0.425312 -0.201445,0.492988 -0.576171,0.492187 -0.385192,-8.24e-4 -0.761374,-0.08979 -0.851563,-0.201172 -0.03841,-0.04744 -0.08142,-0.172103 -0.0957,-0.277343 -0.03897,-0.287127 -0.05794,-0.333985 -0.138672,-0.333985 -0.07859,0 -0.122124,0.106555 -0.123047,0.298828 -3.69e-4,0.07681 -0.06132,0.186655 -0.179687,0.326172 -0.233861,0.275645 -0.422885,0.576096 -0.632813,1.007813 -0.308029,0.633461 -0.428626,0.533111 -1.010937,0.976953 0,0 -0.252529,-0.08185 -0.410157,0.09727 -0.02373,0.02697 -0.04375,0.07397 -0.04375,0.0957 0,0.02173 -0.0518,0.01254 -0.113281,-0.01953 -0.14424,-0.07524 -0.339336,-0.07573 -0.439453,0 -0.110741,0.08376 -0.235949,0.0778 -0.322266,-0.01758 -0.05429,-0.05999 -0.124199,-0.08203 -0.269531,-0.08203 -0.108327,0 -0.334766,0.10318 -0.334766,0.08359 1e-6,-0.01958 -0.257636,-0.16197 -0.464453,-0.201172 -0.720497,-0.136569 -0.65242,-0.278346 -0.970312,-0.911719 -0.226718,-0.451716 -0.385207,-0.704897 -0.636719,-1.013672 -0.123172,-0.151214 -0.189087,-0.270879 -0.189453,-0.34375 -9.35e-4,-0.189282 -0.04684,-0.296875 -0.125,-0.296875 -0.0814,0 -0.101914,0.04995 -0.142578,0.337891 -0.01511,0.107011 -0.05677,0.23168 -0.09375,0.277344 -0.08762,0.108206 -0.470028,0.196456 -0.851563,0.197265 -0.279112,5.93e-4 -0.306917,-0.0065 -0.412109,-0.11914 -0.07885,-0.08441 -0.138363,-0.224158 -0.199219,-0.466797 -0.04779,-0.190553 -0.144043,-0.498855 -0.21289,-0.683594 -0.424958,-1.140286 -0.443611,-1.28106 -0.261719,-2.035156 0.1209,-0.501237 0.129062,-0.892868 0.01758,-0.914063 -0.04908,-0.0093 -0.07339,0.03148 -0.09375,0.16211 -0.01497,0.09608 -0.07209,0.329932 -0.128906,0.517578 -0.05682,0.187646 -0.120633,0.441617 -0.140625,0.564453 -0.01999,0.122836 -0.0452,0.232699 -0.05664,0.244141 -0.03601,0.036 -0.387244,-0.261408 -0.599609,-0.507813 -0.112121,-0.130092 -0.342019,-0.377502 -0.511719,-0.550781 -0.190176,-0.194187 -0.283363,-0.316406 -0.242187,-0.316406 0.137125,0 0.507558,0.170134 0.802734,0.367187 0.167689,0.111946 0.32752,0.203084 0.355469,0.203125 0.09881,2.01e-4 0.04838,-0.19138 -0.09375,-0.357422 -0.183891,-0.214834 -0.5745,-0.407107 -0.9375,-0.46289 -0.406824,-0.06252 -0.407784,-0.06281 -0.275391,-0.16211 0.377471,-0.283111 0.827646,-0.837693 0.841797,-1.037109 0.0058,-0.08168 0.07798,-0.172315 0.273437,-0.341797 0.146606,-0.127125 0.340777,-0.320817 0.431641,-0.429688 0.651888,-0.781072 1.243747,-2.18385 1.556641,-3.693359 0.121956,-0.588361 0.287109,-1.770383 0.287109,-2.058594 0,-0.09027 0.03033,-0.230409 0.06836,-0.310547 0.05072,-0.106884 0.05534,-0.150172 0.01953,-0.162109 -0.03217,-0.01072 -0.04883,-0.118633 -0.04883,-0.318359 0,-0.806529 -0.18765,-1.690222 -0.53711,-2.527344 -0.585353,-1.4022 -1.171739,-2.117765 -2.125,-2.591797 -0.613886,-0.3052697 -1.33563,-0.4446542 -2.27539,-0.4414061 -0.522357,0.00181 -1.6781967,0.4570121 -1.7207036,0.6777341 -0.019513,0.101321 0.092777,0.08885 0.53125,-0.05273 0.3476263,-0.112246 0.378805,-0.115792 0.4257812,-0.05274 0.027948,0.03752 0.050781,0.08254 0.050781,0.09961 0,0.05331 -0.2682737,0.08427 -0.7714844,0.08984 -0.4073278,0.0045 -0.4961336,-0.0042 -0.5546875,-0.0625 -0.059998,-0.05976 -0.062474,-0.09171 -0.021484,-0.228516 0.067585,-0.225579 0.177083,-0.3490441 0.5136719,-0.5761719 0.1623168,-0.1095302 0.3662241,-0.2666167 0.453125,-0.3496093 0.086901,-0.082993 0.3492193,-0.301787 0.5839844,-0.4863282 0.673969,-0.5297844 1.022065,-0.9251243 1.509766,-1.7167968 0.329991,-0.5356656 0.854541,-1.0930371 1.621093,-1.71875 0.406437,-0.3317615 0.530211,-0.4863282 0.388672,-0.4863282 -0.09351,0 -0.794613,0.5414797 -1.285156,0.9921875 -0.233681,0.2147038 -0.454525,0.390625 -0.492188,0.390625 -0.03766,0 -0.0816,0.035656 -0.0957,0.080078 -0.06958,0.2192389 -0.807446,1.2433888 -1.216797,1.6875 l -0.1875,0.203125 0.01367,-0.3847656 C 10.344973,7.6007471 10.362103,7.5261801 10.5,7.234375 c 0.210719,-0.445904 0.291242,-0.6872495 0.369141,-1.1054688 0.07489,-0.4020657 0.357877,-1.089034 0.677734,-1.6484374 0.162803,-0.28473 0.286956,-0.4342304 0.626953,-0.7519532 0.279859,-0.2615238 0.520522,-0.5340216 0.707031,-0.8027344 0.155572,-0.2241386 0.342679,-0.4649564 0.416016,-0.5351562 0.16868,-0.1614659 1.335317,-0.9596792 1.761719,-1.2050781 0.204158,-0.1174956 0.600033,-0.27833541 1.076172,-0.43750002 0.737131,-0.2464108 0.765403,-0.25317761 1.451172,-0.30664063 0.384811,-0.0300007 0.814463,-0.0728848 0.955078,-0.0957031 0.164605,-0.0267118 0.464068,-0.0390625 0.763672,-0.0390625 z m -6.71875,4.26757818 c -0.0316,-0.00161 -0.07393,0.064478 -0.121094,0.1972656 -0.05077,0.1429412 -0.139414,0.2637254 -0.314453,0.4257812 -0.134056,0.1241121 -0.244141,0.2440394 -0.244141,0.2675782 0,0.075885 0.211459,0.045732 0.382812,-0.054688 0.220817,-0.1294077 0.34961,-0.359674 0.34961,-0.6289062 0,-0.1351918 -0.02113,-0.2054207 -0.05273,-0.2070312 z m 14.9375,5.5859372 c 0.259265,-0.02334 0.887335,0.03427 0.978515,0.08984 0.01626,0.0099 -0.04609,0.126991 -0.136719,0.259766 -0.522396,0.765309 -0.717082,1.910543 -0.43164,2.529296 0.204143,0.442523 0.772474,0.877706 1.240234,0.949219 0.280664,0.04291 0.218636,-0.07234 -0.183594,-0.34375 -0.402833,-0.271819 -0.631262,-0.481726 -0.726562,-0.666015 l -0.06445,-0.125 0.380859,0.02344 c 0.209162,0.01354 0.567459,0.07223 0.796875,0.128906 0.229416,0.05667 0.632058,0.13061 0.894531,0.164063 0.262473,0.03345 0.655991,0.0914 0.875,0.128906 0.331932,0.05684 0.393946,0.07896 0.373047,0.132813 -0.109036,0.280976 -0.150024,0.583065 -0.169922,1.234375 -0.01763,0.57717 -0.03158,0.704628 -0.06836,0.630859 -0.09602,-0.192586 -0.393684,-0.248767 -0.716797,-0.134766 -0.09567,0.03375 -0.322871,0.159622 -0.503906,0.279297 -0.480756,0.317809 -0.493868,0.322842 -0.748047,0.292969 -0.292882,-0.03442 -0.47754,-0.117501 -0.958984,-0.439453 C 27.960746,15.032269 27.957758,15.027295 28.082031,15 c 0.137389,-0.03018 0.159469,-0.10225 0.0625,-0.199219 -0.07885,-0.07885 -0.198733,-0.09619 -0.851562,-0.125 -0.290662,-0.01283 -0.724489,-0.06265 -0.964844,-0.111328 -0.397544,-0.08052 -0.4375,-0.0977 -0.4375,-0.179687 0,-0.290786 -0.129453,-0.2833 -0.28125,0.01563 -0.154539,0.304324 -0.283426,0.420237 -0.654297,0.589843 -0.191952,0.08778 -0.455001,0.265157 -0.710937,0.476563 -0.223586,0.184683 -0.448238,0.351313 -0.5,0.371094 -0.162285,0.06202 -0.206321,0.04212 -0.234375,-0.107422 -0.03947,-0.210388 0.01745,-0.957193 0.107422,-1.408203 0.14732,-0.738449 0.60148,-1.852693 1.021484,-2.501954 0.383414,-0.592697 0.940303,-1.067411 1.546875,-1.322265 0.366111,-0.153824 0.960877,-0.303956 1.337891,-0.337891 z m -16.357422,0.002 c 0.735544,0.05831 1.535649,0.342604 2.105468,0.771485 0.404917,0.304764 0.759683,0.765362 1.103516,1.433594 0.330906,0.643107 0.536013,1.17313 0.685547,1.767578 0.08299,0.32992 0.109713,0.555438 0.126953,1.078125 l 0.02148,0.660156 -0.136718,-0.002 c -0.207002,-0.0039 -0.28082,-0.04572 -0.705078,-0.400391 -0.24217,-0.202449 -0.508292,-0.380984 -0.703126,-0.472656 C 13.280363,14.817509 13.15357,14.702807 13,14.400391 c -0.152683,-0.30067 -0.28125,-0.306238 -0.28125,-0.01172 0,0.07484 -0.02551,0.09793 -0.130859,0.113281 -0.07267,0.01059 -0.261459,0.04709 -0.417969,0.08203 -0.15651,0.03494 -0.530191,0.07599 -0.832031,0.08984 -0.674636,0.03097 -0.793875,0.04778 -0.873047,0.126953 -0.09731,0.09731 -0.07454,0.170643 0.06445,0.201172 0.125511,0.02757 0.120804,0.03097 -0.328125,0.326172 -0.4559533,0.299822 -0.7491084,0.423828 -1.0078126,0.423828 -0.1619948,0 -0.2108566,-0.02386 -0.6445313,-0.310547 C 8.0684179,15.123826 7.768208,15.03791 7.4980469,15.140625 l -0.1035157,0.04102 -0.00195,-0.273438 c -0.0016,-0.416644 -0.073052,-1.06076 -0.1445312,-1.306641 -0.049799,-0.171302 -0.052427,-0.226048 -0.013672,-0.25 0.027399,-0.01693 0.2622298,-0.06225 0.5214844,-0.09961 0.8046474,-0.115943 1.1453733,-0.173316 1.6503906,-0.28125 0.2683029,-0.05734 0.601872,-0.105306 0.742188,-0.105469 H 10.4043 l -0.05859,0.111328 c -0.09236,0.177626 -0.342756,0.408811 -0.7265624,0.667969 -0.4022227,0.271595 -0.462255,0.386652 -0.1816406,0.34375 0.4672016,-0.07143 1.000552,-0.472633 1.216797,-0.912109 0.129569,-0.263322 0.134357,-0.284905 0.132812,-0.779297 -0.0012,-0.373349 -0.02201,-0.571104 -0.07617,-0.746094 -0.126255,-0.407916 -0.301971,-0.797728 -0.470704,-1.044922 -0.08913,-0.130573 -0.149069,-0.245951 -0.132812,-0.255859 0.01626,-0.0099 0.1766,-0.04131 0.355469,-0.06836 0.220303,-0.03331 0.457943,-0.03897 0.703125,-0.01953 z m -4.3417972,3.232422 c 0.056138,0 0.1584657,0.261696 0.2050781,0.529297 0.025195,0.144645 0.060826,0.803313 0.080078,1.462891 0.036053,1.235202 0.083088,1.671277 0.2675781,2.5 0.1853669,0.832662 0.35788,1.249888 0.7402344,1.789062 0.5496007,0.775014 1.4603218,1.420992 2.2343746,1.585938 0.721323,0.153709 1.905231,0.174144 2.347657,0.04102 0.111793,-0.03364 0.348104,-0.151601 0.52539,-0.263672 0.281336,-0.177844 0.643911,-0.328124 0.794922,-0.328124 0.06488,0 -0.15786,0.39615 -0.423828,0.751953 -0.522252,0.698651 -1.394607,1.358485 -2.119141,1.601562 -0.401718,0.134774 -0.895369,0.14522 -1.382812,0.0293 C 9.3866994,22.925601 8.8792203,22.678112 8.3457031,22.244141 7.8287533,21.823646 7.5726913,21.472792 7.0996094,20.529297 6.4656973,19.265049 6.2943047,18.661726 6.2128906,17.398438 6.1461856,16.363383 6.2749727,15.01608 6.5234375,14.146484 6.6403253,13.73739 6.77723,13.394531 6.8242188,13.394531 Z m 25.0449222,0.01758 c 0.01827,-0.0137 0.03297,0.0037 0.06055,0.04102 0.16125,0.218253 0.383118,1.054743 0.486328,1.832031 0.0924,0.695883 0.121561,1.808338 0.0625,2.417969 -0.08659,0.893754 -0.220382,1.421014 -0.542969,2.154297 -0.478573,1.087859 -0.829335,1.663367 -1.304688,2.138672 -0.54319,0.543135 -1.103921,0.85778 -1.916015,1.072265 -0.380335,0.100452 -0.842737,0.132378 -1.158203,0.08203 -0.64983,-0.103708 -1.726884,-0.800491 -2.289063,-1.482422 -0.208394,-0.252786 -0.597656,-0.870166 -0.597656,-0.947266 0,-0.07226 0.545304,0.139339 0.855469,0.332031 0.391319,0.243111 0.608171,0.306158 1.158203,0.335938 0.809248,0.04381 1.771848,-0.09614 2.287109,-0.332031 0.774059,-0.354376 1.524796,-1.091052 1.947266,-1.91211 0.429885,-0.83547 0.6416,-2.002824 0.685547,-3.78125 0.02798,-1.132326 0.06931,-1.537922 0.1875,-1.80664 0.03807,-0.08657 0.05985,-0.130827 0.07813,-0.144532 z m -12.585938,1.242188 c -0.08439,0 -0.09435,0.02404 -0.121094,0.326172 -0.01617,0.182697 -0.0079,0.598541 0.01953,0.945312 0.03643,0.460674 0.04054,1.051143 0.01172,2.306641 -0.03922,1.708296 0.0017,3.12206 0.107422,3.71875 0.06608,0.372896 0.03613,1.393926 -0.04492,1.544922 -0.036,0.06707 -0.09442,0.207081 -0.130859,0.310547 -0.121692,0.345519 -0.178598,0.362181 -0.710938,0.21875 -0.450052,-0.121261 -0.748557,-0.0157 -0.980468,0.345703 -0.161425,0.251558 -0.242188,0.5187 -0.242188,0.792968 0,0.245281 -0.03802,0.466797 -0.08008,0.466797 -0.05898,0 -0.238094,-0.394259 -0.287109,-0.630859 -0.02779,-0.134151 -0.05255,-0.464119 -0.05469,-0.732422 -0.0047,-0.588463 0.06114,-0.8901 0.347657,-1.576172 0.231236,-0.553699 0.315414,-0.905705 0.316406,-1.320312 5.63e-4,-0.235192 -0.01189,-0.292969 -0.06055,-0.292969 -0.04157,0 -0.06012,0.0408 -0.06055,0.130859 -7.33e-4,0.155619 -0.0132,0.27973 -0.152344,0.269532 -0.05821,-0.0043 -0.126083,0.03592 -0.183594,0.08984 -0.146726,0.137556 -0.349508,0.46363 -0.4375,0.689453 -0.04502,0.115548 -0.202376,0.37035 -0.349609,0.56836 -0.379518,0.510402 -0.57198,0.996309 -0.660156,1.662109 -0.03679,0.277814 -0.08157,0.570004 -0.09961,0.650391 -0.01816,0.08093 -0.01485,0.185394 0.0078,0.234375 0.02251,0.04865 0.07642,0.09126 0.119141,0.09375 0.07264,0.0042 0.07395,-0.0059 0.02734,-0.138672 -0.03479,-0.0991 -0.036,-0.175051 -0.0059,-0.253906 0.02374,-0.06212 0.06225,-0.294993 0.08594,-0.517578 0.06142,-0.5771 0.283083,-1.130928 0.640626,-1.603516 0.146168,-0.193201 0.312232,-0.466647 0.36914,-0.609375 0.100649,-0.252432 0.41226,-0.692267 0.490234,-0.691406 0.0339,0.0037 0.06664,0.01152 0.06641,0.02539 -0.0017,0.107004 -0.133036,0.49592 -0.277344,0.816407 -0.09294,0.206409 -0.217773,0.533574 -0.277344,0.728515 -0.09841,0.322041 -0.108657,0.417009 -0.111328,1.044922 -0.0042,0.984792 0.05141,1.212462 0.417969,1.6875 0.04313,0.0559 0.247182,0.340198 0.453125,0.63086 0.436532,0.616107 0.564549,0.761116 0.810547,0.919921 0.191683,0.123743 0.43401,0.155834 0.521484,0.06836 0.03107,-0.03107 0.04858,-0.190227 0.04883,-0.4375 l 0.002,-0.388672 0.119141,0.208984 c 0.06575,0.11464 0.130346,0.254028 0.144531,0.310547 0.01419,0.05652 0.07194,0.145587 0.126953,0.197266 0.13011,0.122231 0.207184,0.07547 0.31836,-0.191406 0.0457,-0.109693 0.123002,-0.273847 0.171875,-0.363282 l 0.08984,-0.162109 0.002,0.388672 c 0.0011,0.245493 0.01993,0.406652 0.05078,0.4375 0.08747,0.08747 0.329801,0.05538 0.521484,-0.06836 0.245998,-0.158805 0.374015,-0.303814 0.810547,-0.919921 0.205943,-0.290662 0.41038,-0.574963 0.453125,-0.63086 0.342403,-0.447746 0.394096,-0.62209 0.429688,-1.46289 0.03491,-0.824715 -0.03765,-1.149565 -0.488282,-2.214844 -0.05675,-0.134152 -0.116805,-0.296677 -0.132812,-0.361328 l -0.0293,-0.119141 0.134766,0.07813 c 0.422844,0.244381 0.739028,0.708948 0.86914,1.277344 0.03356,0.14662 0.144498,0.495244 0.248047,0.773437 0.103549,0.278193 0.233301,0.624201 0.287109,0.769531 0.05381,0.145331 0.09718,0.332171 0.09766,0.416016 6.07e-4,0.108024 0.01929,0.152344 0.0625,0.152344 0.04729,0 0.06158,-0.05116 0.06055,-0.232422 -0.0014,-0.240939 -0.02196,-0.308796 -0.337891,-1.121094 -0.102623,-0.263855 -0.233002,-0.650702 -0.289063,-0.861328 -0.166323,-0.624898 -0.367389,-0.95004 -0.75,-1.207031 -0.280824,-0.188624 -0.444314,-0.357288 -0.472656,-0.486328 -0.04462,-0.203175 -0.142578,-0.141567 -0.142578,0.08984 0,0.335121 0.116323,0.794584 0.310547,1.232422 0.202141,0.455686 0.322534,0.884801 0.361328,1.285157 0.03079,0.317741 -0.03772,1.047018 -0.123047,1.300781 -0.06852,0.203789 -0.202237,0.401279 -0.24414,0.359375 -0.01499,-0.01499 -0.04282,-0.211911 -0.06055,-0.4375 -0.03653,-0.464861 -0.152241,-0.761616 -0.390625,-1 -0.243089,-0.243089 -0.503473,-0.264713 -1.103516,-0.0918 -0.196895,0.05674 -0.26202,0.03185 -0.365234,-0.138672 -0.06199,-0.102418 -0.06159,-0.12891 0.0078,-0.396484 0.05171,-0.19938 0.06558,-0.339722 0.04492,-0.458985 -0.01637,-0.09452 -0.02858,-0.356492 -0.02539,-0.580078 0.0032,-0.223586 -0.02203,-0.561905 -0.05664,-0.751953 -0.109433,-0.600921 -0.156963,-1.897691 -0.121094,-3.3125 0.04119,-1.624749 0.04227,-1.954775 0,-2.978516 -0.03367,-0.815481 -0.03476,-0.822265 -0.125,-0.822265 z m -6.523437,0.130859 0.123046,0.15625 c 0.112289,0.141776 0.546174,0.404297 0.667969,0.404297 0.02589,0 0.252638,0.16625 0.503907,0.369141 0.49997,0.403708 0.651258,0.484375 0.90039,0.484375 h 0.166016 l -0.02149,0.193359 c -0.01193,0.106203 -0.04113,0.376024 -0.06445,0.59961 -0.10185,0.976469 -0.414511,2.218155 -0.804687,3.201171 l -0.109375,0.275391 -0.169922,-0.02539 c -0.263004,-0.03847 -0.529678,0.04618 -0.96875,0.310547 -0.220711,0.132889 -0.43212,0.242188 -0.470703,0.242188 -0.03858,0 -0.07859,0.02283 -0.08789,0.05078 -0.01226,0.03683 -0.167207,0.05179 -0.5625,0.05664 -1.180847,0.0145 -1.8895193,-0.175367 -2.5781249,-0.69336 -0.5736087,-0.431537 -0.967613,-0.90318 -1.2617177,-1.50786 -0.2102796,-0.432335 -0.3448888,-0.918798 -0.484375,-1.742188 -0.1095457,-0.646651 -0.126987,-0.878906 -0.0625,-0.878906 0.080506,0 0.203125,-0.165293 0.203125,-0.273438 0,-0.06074 -0.029297,-0.18994 -0.066406,-0.287109 -0.064876,-0.169875 -0.064145,-0.179996 0.013672,-0.257812 0.075663,-0.07566 0.091676,-0.07671 0.2519531,-0.02149 0.094289,0.03248 0.3472467,0.174421 0.5625,0.316406 l 0.390625,0.257813 0.2128907,0.08398 c 0.1864006,0.07383 0.3784273,0.04784 0.5605468,-0.02539 0.169776,-0.07208 0.2961999,-0.133506 0.410156,-0.191407 0.112509,-0.0527 0.388578,-0.232963 0.683594,-0.439453 0.525525,-0.367829 0.54254,-0.375748 0.822265,-0.40039 0.46292,-0.04078 0.840819,-0.108017 1.046875,-0.185547 z m 13.089843,0.0332 c 0.03008,-0.0182 0.05478,-0.01563 0.08398,0 0.14458,0.07738 0.548617,0.161125 0.988281,0.205079 l 0.449219,0.04492 0.388672,0.267579 c 0.213048,0.146995 0.475534,0.327854 0.583984,0.402343 0.10845,0.07449 0.223863,0.134766 0.255859,0.134766 0.032,0 0.17153,0.03911 0.310547,0.08594 0.19156,0.06453 0.327255,0.08093 0.560547,0.07031 0.300885,-0.01369 0.316546,-0.01915 0.699219,-0.271485 0.215324,-0.141985 0.468212,-0.283921 0.5625,-0.316406 0.160277,-0.05522 0.17629,-0.05418 0.251953,0.02149 0.07782,0.07782 0.07855,0.08794 0.01367,0.257812 -0.121513,0.318176 -0.0723,0.491231 0.15625,0.552735 0.117173,0.03153 0.122494,0.04202 0.109375,0.234374 -0.02012,0.294947 -0.156515,1.074179 -0.271484,1.552735 -0.244678,1.018469 -0.856844,1.886996 -1.75,2.484375 -0.451385,0.301904 -0.90876,0.455106 -1.583985,0.53125 -0.759397,0.08563 -1.545942,0.0258 -1.664062,-0.126953 -0.05449,-0.07046 -0.528362,-0.364756 -0.701172,-0.435547 -0.07138,-0.02924 -0.261964,-0.06549 -0.423828,-0.08008 l -0.294922,-0.02734 -0.15625,-0.386719 C 24.064917,19.15335 23.66776,17.382231 23.607415,16.404349 l -0.01172,-0.183594 0.177735,-0.0293 c 0.198048,-0.03381 0.370767,-0.140581 0.794921,-0.49414 0.162377,-0.135352 0.447555,-0.316509 0.660157,-0.417969 0.268627,-0.128197 0.411215,-0.224503 0.503906,-0.339844 0.05209,-0.06482 0.08711,-0.102895 0.117187,-0.121094 z m 6.25,4.021485 c -0.05089,0.02108 -0.140313,0.140219 -0.253906,0.376953 -0.438491,0.913841 -1.04192,1.582581 -2.033203,2.248047 -0.766117,0.514308 -1.215608,0.669735 -2.205078,0.759765 -0.448784,0.04083 -0.539229,0.05909 -0.529297,0.111329 0.0093,0.04876 0.08972,0.06747 0.357422,0.08398 0.189827,0.01171 0.472396,0.0138 0.628906,0.0059 0.943516,-0.04785 1.939455,-0.580996 2.929688,-1.570312 0.51716,-0.516682 0.783258,-0.887969 0.996093,-1.394531 0.175566,-0.417859 0.194192,-0.656234 0.109375,-0.621094 z M 12.591797,22.875 c -0.01137,0.01957 -0.06807,0.08105 -0.177735,0.193359 -0.36786,0.376745 -0.713767,0.594804 -1.09375,0.691407 -0.338963,0.08617 -0.466618,0.09458 -0.636718,0.04297 -0.159745,-0.04847 -0.61855,-0.284102 -0.730469,-0.375 l -0.099609,-0.08008 0.1015625,0.02344 c 0.055896,0.01295 0.2612295,0.04377 0.4570305,0.07031 0.682106,0.09246 1.459863,-0.09921 2.083985,-0.515625 0.0725,-0.04837 0.107077,-0.07035 0.0957,-0.05078 z m 6.712891,1.365234 0.125,0.105469 c 0.157865,0.132835 0.444396,0.143099 0.779296,0.02539 0.301134,-0.10584 0.365067,-0.10294 0.517578,0.02539 0.214623,0.180593 0.330761,0.464391 0.369141,0.90625 0.01864,0.214634 0.05231,0.441147 0.07617,0.503907 0.02386,0.06276 0.03056,0.136729 0.01367,0.164062 -0.174832,0.282952 -0.684852,0.946027 -0.863281,1.123047 l -0.22461,0.224609 -0.01953,-0.453125 c -0.02233,-0.495721 -0.06012,-0.583984 -0.246094,-0.583984 -0.135957,0 -0.217308,0.09149 -0.382812,0.439453 -0.0656,0.137916 -0.130991,0.251953 -0.146485,0.251953 -0.01549,0 -0.06925,-0.09746 -0.11914,-0.214844 -0.137422,-0.323329 -0.268102,-0.476562 -0.404297,-0.476562 -0.0632,0 -0.139236,0.02956 -0.169922,0.06641 -0.03665,0.04401 -0.06282,0.221071 -0.07617,0.517578 l -0.02148,0.453125 -0.205078,-0.205078 c -0.19097,-0.189631 -0.478184,-0.559475 -0.779297,-1 -0.127031,-0.185844 -0.128723,-0.186777 -0.07031,-0.380859 0.03234,-0.107466 0.05859,-0.304391 0.05859,-0.435547 0,-0.337602 0.126373,-0.668752 0.324219,-0.855469 0.186453,-0.175965 0.226301,-0.18021 0.570312,-0.07031 0.363088,0.115992 0.612444,0.106789 0.769532,-0.02539 z m 3.59375,4.25 c 0.01102,-0.0043 0.02548,-0.0013 0.04492,0.0039 0.04472,0.01207 0.249789,0.02116 0.457032,0.02148 l 0.376953,0.002 -0.02539,0.111328 c -0.06595,0.280151 -0.280165,0.903695 -0.373047,1.087891 -0.05637,0.111793 -0.248771,0.398317 -0.429687,0.638672 -0.305519,0.405892 -0.392578,0.49406 -0.392578,0.40039 0,-0.02037 0.04477,-0.207206 0.09961,-0.416015 0.170048,-0.647476 0.232557,-1.066975 0.21875,-1.480469 -0.0093,-0.277513 -0.0096,-0.356199 0.02344,-0.369141 z m -7.185547,0.002 c 0.034,0.02016 0.03515,0.12521 0.03711,0.5 0.0023,0.443557 0.02292,0.600437 0.136719,1.068359 0.07341,0.301841 0.142747,0.590318 0.154297,0.640625 0.01155,0.05031 0.0038,0.0918 -0.01758,0.0918 -0.05399,0 -0.67999,-0.852476 -0.798829,-1.087891 -0.08865,-0.175619 -0.302622,-0.801908 -0.367187,-1.076172 l -0.02539,-0.111328 0.376953,-0.002 c 0.207243,-3.05e-4 0.412314,-0.0096 0.457032,-0.02148 0.01952,-0.0052 0.03554,-0.0087 0.04687,-0.002 z m 1.570312,1.451171 0.208985,0.119141 c 0.202432,0.115382 0.206775,0.123081 0.21875,0.322266 0.01347,0.224083 -0.02514,0.254933 -0.185547,0.142578 -0.11626,-0.08143 -0.165287,-0.178895 -0.207032,-0.402344 z m 3.945313,0.07031 c 0.02946,-0.0064 0.04395,0.0025 0.05273,0.02539 0.04146,0.108034 -0.07157,0.518833 -0.169922,0.617188 -0.08034,0.08034 -0.174683,0.12458 -0.183594,0.08594 -0.0013,-0.0056 -0.0329,-0.134236 -0.07227,-0.285157 -0.06414,-0.245917 -0.06494,-0.272998 -0.0078,-0.273437 0.03506,-2.69e-4 0.142273,-0.04667 0.238282,-0.101563 0.06988,-0.03995 0.113119,-0.06197 0.142578,-0.06836 z m -0.798828,0.333984 c 0.03052,0.0026 0.05971,0.01723 0.08594,0.04883 0.0233,0.02807 0.05491,0.102702 0.07031,0.164063 0.02458,0.09795 0.01777,0.11084 -0.06641,0.111328 -0.05273,3.05e-4 -0.137193,0.01191 -0.1875,0.02539 -0.07946,0.02129 -0.09292,0.0094 -0.0918,-0.0918 0.0017,-0.155526 0.09789,-0.265752 0.189454,-0.257813 z m -1.550782,0.08008 c 0.05059,0 0.140625,0.08211 0.140625,0.128907 0,0.01789 -0.06413,0.0332 -0.142578,0.0332 -0.13245,0 -0.138949,-0.0065 -0.0918,-0.08203 0.02793,-0.04472 0.07006,-0.08008 0.09375,-0.08008 z m -0.675781,0.01758 c 0.02652,-0.0028 0.05503,0.007 0.09961,0.02734 0.130992,0.05968 0.13587,0.100589 0.01563,0.132813 -0.222546,0.05964 -0.323778,0.0012 -0.197265,-0.113281 0.0313,-0.02833 0.05551,-0.04407 0.08203,-0.04688 z m 1.535156,0.0293 c 0.0393,0.01243 0.08872,0.0382 0.134766,0.07422 l 0.101562,0.08008 h -0.175781 c -0.145011,7.41e-4 -0.172546,-0.0099 -0.152344,-0.0625 0.01357,-0.03537 0.02344,-0.07268 0.02344,-0.08203 0,-0.02145 0.02905,-0.0222 0.06836,-0.0098 z"
             transform="matrix(24.59906,0,0,24.59906,-41.371005,2.0509031)" />
        </g>
      </g>
    </g>
  </g>
</svg>
